<svg width="36" height="36" viewBox="0 0 36 36" fill="none" xmlns="http://www.w3.org/2000/svg">
<circle cx="18" cy="18" r="18" fill="#DDDDDD"/>
<g clip-path="url(#clip0_1_369)">
<path d="M20.2 8.875C18.9734 8.875 17.797 9.36228 16.9296 10.2296C16.0623 11.097 15.575 12.2734 15.575 13.5V16.075H13.1C12.976 16.075 12.875 16.175 12.875 16.3V19.7C12.875 19.824 12.975 19.925 13.1 19.925H15.575V26.9C15.575 27.024 15.675 27.125 15.8 27.125H19.2C19.324 27.125 19.425 27.025 19.425 26.9V19.925H21.922C22.025 19.925 22.115 19.855 22.14 19.755L22.99 16.355C22.9984 16.3218 22.9991 16.2872 22.992 16.2537C22.985 16.2202 22.9704 16.1888 22.9494 16.1618C22.9283 16.1348 22.9014 16.1129 22.8707 16.0979C22.84 16.0829 22.8062 16.075 22.772 16.075H19.425V13.5C19.425 13.3982 19.445 13.2974 19.484 13.2034C19.5229 13.1094 19.58 13.024 19.652 12.952C19.724 12.88 19.8094 12.8229 19.9034 12.784C19.9974 12.745 20.0982 12.725 20.2 12.725H22.8C22.924 12.725 23.025 12.625 23.025 12.5V9.1C23.025 8.976 22.925 8.875 22.8 8.875H20.2Z" fill="black"/>
</g>
<defs>
<clipPath id="clip0_1_369">
<rect width="24" height="24" fill="white" transform="translate(6 6)"/>
</clipPath>
</defs>
</svg>
