<svg width="80" height="80" viewBox="0 0 80 80" fill="none" xmlns="http://www.w3.org/2000/svg">
<path fill-rule="evenodd" clip-rule="evenodd" d="M74.6666 22.4696L39.9999 2.24023L5.33325 22.4696V57.5309L10.6986 60.6616L21.6693 56.2242C23.1456 55.6264 24.4098 54.6015 25.3001 53.2808C26.1904 51.9601 26.6662 50.4037 26.6666 48.8109V21.3336H31.9999V48.8109C31.9995 51.466 31.2064 54.0606 29.7223 56.2621C28.2381 58.4637 26.1304 60.172 23.6693 61.1682L16.5226 64.0589L39.9999 77.7602L74.6666 57.5362V22.4696ZM37.3333 32.0002C37.3333 29.1713 38.4571 26.4581 40.4574 24.4578C42.4578 22.4574 45.1709 21.3336 47.9999 21.3336H54.2239C59.6212 21.3336 63.9999 25.7069 63.9999 31.1096V32.0002H58.6666V31.1096C58.6666 30.5261 58.5517 29.9484 58.3284 29.4094C58.1051 28.8704 57.7779 28.3807 57.3654 27.9681C56.9528 27.5556 56.4631 27.2283 55.924 27.0051C55.385 26.7818 54.8073 26.6669 54.2239 26.6669H47.9999C46.5854 26.6669 45.2289 27.2288 44.2287 28.229C43.2285 29.2292 42.6666 30.5857 42.6666 32.0002C42.6666 33.4147 43.2285 34.7713 44.2287 35.7715C45.2289 36.7717 46.5854 37.3336 47.9999 37.3336H53.3332C56.1622 37.3336 58.8753 38.4574 60.8757 40.4578C62.8761 42.4582 63.9999 45.1713 63.9999 48.0002C63.9999 50.8292 62.8761 53.5423 60.8757 55.5427C58.8753 57.5431 56.1622 58.6669 53.3332 58.6669H47.9999C45.1709 58.6669 42.4578 57.5431 40.4574 55.5427C38.4571 53.5423 37.3333 50.8292 37.3333 48.0002H42.6666C42.6666 49.4147 43.2285 50.7713 44.2287 51.7715C45.2289 52.7717 46.5854 53.3336 47.9999 53.3336H53.3332C54.7477 53.3336 56.1043 52.7717 57.1045 51.7715C58.1047 50.7713 58.6666 49.4147 58.6666 48.0002C58.6666 46.5857 58.1047 45.2292 57.1045 44.229C56.1043 43.2288 54.7477 42.6669 53.3332 42.6669H47.9999C45.1709 42.6669 42.4578 41.5431 40.4574 39.5427C38.4571 37.5423 37.3333 34.8292 37.3333 32.0002Z" fill="white"/>
</svg>
