<svg width="80" height="80" viewBox="0 0 80 80" fill="none" xmlns="http://www.w3.org/2000/svg">
<path fill-rule="evenodd" clip-rule="evenodd" d="M28.8901 31.3898C27.7594 31.3898 26.6398 31.6125 25.5952 32.0452C24.5506 32.4779 23.6014 33.1121 22.8019 33.9116C22.0024 34.7112 21.3682 35.6603 20.9355 36.7049C20.5028 37.7495 20.2801 38.8692 20.2801 39.9998C20.2801 41.1305 20.5028 42.2501 20.9355 43.2947C21.3682 44.3394 22.0024 45.2885 22.8019 46.088C23.6014 46.8875 24.5506 47.5217 25.5952 47.9544C26.6398 48.3871 27.7594 48.6098 28.8901 48.6098H37.5001V40.1732C37.4988 40.0576 37.4988 39.9421 37.5001 39.8265V31.3898H28.8901ZM37.5001 26.3898H28.8901C26.6062 26.3898 24.4157 25.4825 22.8007 23.8675C21.1857 22.2525 20.2784 20.0621 20.2784 17.7782C20.2784 15.4942 21.1857 13.3038 22.8007 11.6888C24.4157 10.0738 26.6062 9.1665 28.8901 9.1665H37.5001V26.3898ZM42.5001 9.1665V26.3898H51.1101C53.3647 26.3455 55.512 25.4187 57.0908 23.8085C58.6696 22.1983 59.554 20.0332 59.554 17.7782C59.554 15.5231 58.6696 13.358 57.0908 11.7478C55.512 10.1377 53.3647 9.21086 51.1101 9.1665H42.5001ZM51.1101 31.3865C48.8501 31.3862 46.6806 32.2746 45.0697 33.8598C43.4589 35.4451 42.536 37.6001 42.5001 39.8598V40.1365C42.5277 41.8332 43.056 43.4838 44.0187 44.8812C44.9814 46.2786 46.3356 47.3603 47.9111 47.9906C49.4866 48.6208 51.2132 48.7715 52.874 48.4236C54.5349 48.0758 56.0559 47.2449 57.2461 46.0354C58.4362 44.8259 59.2425 43.2916 59.5635 41.6254C59.8845 39.9592 59.706 38.2352 59.0504 36.6701C58.3949 35.1049 57.2914 33.7684 55.8787 32.8284C54.466 31.8884 52.807 31.3867 51.1101 31.3865ZM28.8901 53.6098C27.1864 53.6092 25.5208 54.1138 24.1039 55.0598C22.687 56.0059 21.5825 57.3509 20.9301 58.9247C20.2776 60.4985 20.1066 62.2305 20.4385 63.9015C20.7705 65.5725 21.5906 67.1076 22.795 68.3125C23.9995 69.5175 25.5343 70.3381 27.2052 70.6708C28.8761 71.0034 30.6081 70.833 32.1822 70.1812C33.7563 69.5293 35.1017 68.4254 36.0483 67.0088C36.9949 65.5923 37.5001 63.9269 37.5001 62.2232V53.6098H28.8901Z" fill="white"/>
</svg>
