<svg width="80" height="80" viewBox="0 0 80 80" fill="none" xmlns="http://www.w3.org/2000/svg">
<path d="M40.0001 20C31.1001 20 25.5667 24.4333 23.3334 33.3333C26.6667 28.9 30.5667 27.2333 35.0001 28.3333C37.5334 28.9667 39.3667 30.8 41.3667 32.8333C44.6334 36.1667 48.3334 40 56.6667 40C65.5667 40 71.1001 35.5667 73.3334 26.6667C70.0001 31.1 66.1001 32.7667 61.6667 31.6667C59.1334 31.0333 57.3334 29.2 55.3001 27.1667C52.0334 23.8333 48.3334 20 40.0001 20ZM23.3334 40C14.4334 40 8.90008 44.4333 6.66675 53.3333C10.0001 48.9 13.9001 47.2333 18.3334 48.3333C20.8667 48.9667 22.6667 50.8 24.7001 52.8333C27.9667 56.1667 31.6667 60 40.0001 60C48.9001 60 54.4334 55.5667 56.6667 46.6667C53.3334 51.1 49.4334 52.7667 45.0001 51.6667C42.4667 51.0333 40.6667 49.2 38.6334 47.1667C35.3667 43.8333 31.6667 40 23.3334 40Z" fill="white"/>
</svg>
