<svg width="80" height="80" viewBox="0 0 80 80" fill="none" xmlns="http://www.w3.org/2000/svg">
<path d="M33.3333 26.6667H46.6667V21.6667C46.6667 19.3592 47.3509 17.1036 48.6329 15.185C49.9148 13.2664 51.7369 11.7711 53.8687 10.8881C56.0005 10.0051 58.3463 9.77402 60.6094 10.2242C62.8725 10.6743 64.9513 11.7855 66.5829 13.4171C68.2145 15.0487 69.3257 17.1275 69.7758 19.3906C70.226 21.6537 69.995 23.9995 69.1119 26.1313C68.2289 28.2631 66.7336 30.0852 64.815 31.3672C62.8964 32.6491 60.6408 33.3333 58.3333 33.3333H53.3333V46.6667H58.3333C60.6408 46.6667 62.8964 47.3509 64.815 48.6329C66.7336 49.9148 68.2289 51.7369 69.1119 53.8687C69.995 56.0005 70.226 58.3463 69.7758 60.6094C69.3257 62.8725 68.2145 64.9513 66.5829 66.5829C64.9513 68.2145 62.8725 69.3257 60.6094 69.7758C58.3463 70.226 56.0005 69.995 53.8687 69.1119C51.7369 68.2289 49.9148 66.7336 48.6329 64.815C47.3509 62.8964 46.6667 60.6408 46.6667 58.3333V53.3333H33.3333V58.3333C33.3333 60.6408 32.6491 62.8964 31.3672 64.815C30.0852 66.7336 28.2631 68.2289 26.1313 69.1119C23.9995 69.995 21.6537 70.226 19.3906 69.7758C17.1275 69.3257 15.0487 68.2145 13.4171 66.5829C11.7855 64.9513 10.6743 62.8725 10.2242 60.6094C9.77402 58.3463 10.0051 56.0005 10.8881 53.8687C11.7711 51.7369 13.2664 49.9148 15.185 48.6329C17.1036 47.3509 19.3592 46.6667 21.6667 46.6667H26.6667V33.3333H21.6667C19.3592 33.3333 17.1036 32.6491 15.185 31.3672C13.2664 30.0852 11.7711 28.2631 10.8881 26.1313C10.0051 23.9995 9.77402 21.6537 10.2242 19.3906C10.6743 17.1275 11.7855 15.0487 13.4171 13.4171C15.0487 11.7855 17.1275 10.6743 19.3906 10.2242C21.6537 9.77402 23.9995 10.0051 26.1313 10.8881C28.2631 11.7711 30.0852 13.2664 31.3672 15.185C32.6491 17.1036 33.3333 19.3592 33.3333 21.6667V26.6667ZM26.6667 26.6667V21.6667C26.6667 20.6778 26.3734 19.7111 25.824 18.8888C25.2746 18.0666 24.4937 17.4257 23.5801 17.0473C22.6665 16.6688 21.6611 16.5698 20.6912 16.7627C19.7213 16.9557 18.8304 17.4319 18.1311 18.1311C17.4319 18.8304 16.9557 19.7213 16.7627 20.6912C16.5698 21.6611 16.6688 22.6665 17.0473 23.5801C17.4257 24.4937 18.0666 25.2746 18.8888 25.824C19.7111 26.3734 20.6778 26.6667 21.6667 26.6667H26.6667ZM26.6667 53.3333H21.6667C20.6778 53.3333 19.7111 53.6266 18.8888 54.176C18.0666 54.7254 17.4257 55.5063 17.0473 56.4199C16.6688 57.3336 16.5698 58.3389 16.7627 59.3088C16.9557 60.2787 17.4319 61.1696 18.1311 61.8689C18.8304 62.5681 19.7213 63.0443 20.6912 63.2373C21.6611 63.4302 22.6665 63.3312 23.5801 62.9527C24.4937 62.5743 25.2746 61.9334 25.824 61.1112C26.3734 60.2889 26.6667 59.3222 26.6667 58.3333V53.3333ZM53.3333 26.6667H58.3333C59.3222 26.6667 60.2889 26.3734 61.1112 25.824C61.9334 25.2746 62.5743 24.4937 62.9527 23.5801C63.3312 22.6665 63.4302 21.6611 63.2373 20.6912C63.0443 19.7213 62.5681 18.8304 61.8689 18.1311C61.1696 17.4319 60.2787 16.9557 59.3088 16.7627C58.3389 16.5698 57.3336 16.6688 56.4199 17.0473C55.5063 17.4257 54.7254 18.0666 54.176 18.8888C53.6266 19.7111 53.3333 20.6778 53.3333 21.6667V26.6667ZM53.3333 53.3333V58.3333C53.3333 59.3222 53.6266 60.2889 54.176 61.1112C54.7254 61.9334 55.5063 62.5743 56.4199 62.9527C57.3336 63.3312 58.3389 63.4302 59.3088 63.2373C60.2787 63.0443 61.1696 62.5681 61.8689 61.8689C62.5681 61.1696 63.0443 60.2787 63.2373 59.3088C63.4302 58.3389 63.3312 57.3336 62.9527 56.4199C62.5743 55.5063 61.9334 54.7254 61.1112 54.176C60.2889 53.6266 59.3222 53.3333 58.3333 53.3333H53.3333ZM33.3333 33.3333V46.6667H46.6667V33.3333H33.3333Z" fill="white"/>
</svg>
