<svg width="80" height="80" viewBox="0 0 80 80" fill="none" xmlns="http://www.w3.org/2000/svg">
<g clip-path="url(#clip0_4001_231)">
<path d="M67.43 52.6433C67.7674 52.4493 68.0479 52.17 68.2433 51.8333C68.4391 51.4961 68.5426 51.1133 68.5433 50.7233L68.5833 37.8633C68.5841 37.4734 68.6876 37.0906 68.8833 36.7533C69.0797 36.4163 69.3614 36.1369 69.7 35.9433L76.6667 31.9334C77.0046 31.7401 77.3874 31.6389 77.7767 31.64C78.1666 31.641 78.5494 31.7444 78.8867 31.94C79.224 32.1342 79.5045 32.4135 79.7 32.75C79.8946 33.0876 79.9969 33.4704 79.9967 33.86V57.24C79.9964 57.631 79.893 58.015 79.6969 58.3532C79.5009 58.6915 79.2191 58.9721 78.88 59.1667L52.57 74.28C52.2341 74.4724 51.8538 74.5736 51.4667 74.5736C51.0796 74.5736 50.6992 74.4724 50.3633 74.28L29.7167 62.4734C29.3765 62.2792 29.0936 61.9986 28.8967 61.66C28.6999 61.3208 28.5964 60.9355 28.5967 60.5433V48.7534C28.5967 48.74 28.61 48.7333 28.6233 48.74C28.6367 48.7467 28.65 48.74 28.65 48.7233V48.71C28.65 48.7 28.6567 48.6933 28.6633 48.6867L45.67 38.92C45.6833 38.91 45.6767 38.8867 45.66 38.8867C45.6574 38.8867 45.6549 38.8861 45.6526 38.8849C45.6502 38.8838 45.6482 38.8821 45.6467 38.88C45.6452 38.8782 45.6441 38.876 45.6436 38.8737C45.643 38.8714 45.6429 38.869 45.6433 38.8667L45.6767 27.31C45.6782 26.9186 45.5764 26.5337 45.3815 26.1942C45.1866 25.8547 44.9055 25.5727 44.5667 25.3767C44.2287 25.1815 43.8453 25.0788 43.455 25.0788C43.0647 25.0788 42.6813 25.1815 42.3433 25.3767L29.7067 32.6633C29.3695 32.8573 28.9873 32.9593 28.5983 32.9593C28.2094 32.9593 27.8272 32.8573 27.49 32.6633L14.81 25.3634C14.4723 25.1695 14.0896 25.0678 13.7003 25.0684C13.3109 25.0689 12.9285 25.1717 12.5913 25.3664C12.2542 25.5612 11.9741 25.841 11.779 26.178C11.584 26.515 11.4809 26.8973 11.48 27.2867V48.1767C11.4801 48.5661 11.378 48.9487 11.1838 49.2863C10.9896 49.6238 10.7101 49.9044 10.3733 50.1C10.0371 50.2952 9.65547 50.3986 9.26667 50.4C8.87737 50.4011 8.49461 50.3 8.15667 50.1067L1.12 46.0833C0.779798 45.8892 0.49692 45.6086 0.300005 45.27C0.102704 44.9298 -0.000816678 44.5433 4.85184e-06 44.15L0.0633382 7.64002C0.064547 7.25114 0.167731 6.86939 0.362591 6.53285C0.557451 6.19632 0.837171 5.91678 1.17383 5.72214C1.51049 5.5275 1.89231 5.42456 2.28119 5.4236C2.67007 5.42265 3.05239 5.5237 3.39 5.71668L27.49 19.56C27.8272 19.7539 28.2094 19.856 28.5983 19.856C28.9873 19.856 29.3695 19.7539 29.7067 19.56L53.8 5.71668C54.1379 5.52327 54.5207 5.42211 54.91 5.42335C55.2999 5.42413 55.6828 5.52761 56.02 5.72335C56.3578 5.91843 56.6383 6.19892 56.8333 6.53668C57.0266 6.87462 57.1278 7.25738 57.1267 7.64668V44.1667C57.1267 44.5567 57.0267 44.94 56.83 45.28C56.634 45.6182 56.3523 45.8987 56.0133 46.0933L43.3967 53.36C43.0573 53.5555 42.7755 53.8373 42.58 54.1767C42.3849 54.5152 42.2825 54.8993 42.2833 55.29C42.2837 55.6811 42.3872 56.0651 42.5833 56.4033C42.781 56.7425 43.0651 57.0231 43.4067 57.2167L50.3667 61.18C50.7022 61.37 51.0811 61.4699 51.4667 61.47C51.8551 61.4695 52.2367 61.3672 52.5733 61.1733L67.43 52.64V52.6433ZM68.89 19.8834C68.8896 20.2755 68.9931 20.6608 69.19 21C69.3886 21.3396 69.6739 21.6203 70.0167 21.8134C70.3582 22.0063 70.7447 22.1055 71.1369 22.1008C71.5292 22.0961 71.9132 21.9877 72.25 21.7867L78.92 17.7867C79.2489 17.5894 79.5211 17.3104 79.71 16.9767C79.8999 16.6424 79.9998 16.2645 80 15.88V7.73335C79.9992 7.34088 79.8946 6.95561 79.6967 6.61668C79.4983 6.27773 79.2136 5.99739 78.8717 5.80417C78.5298 5.61095 78.1427 5.51176 77.75 5.51668C77.3578 5.52108 76.9736 5.62919 76.6367 5.83002L69.97 9.83002C69.6399 10.0268 69.3666 10.3059 69.1767 10.64C68.9881 10.9747 68.8894 11.3525 68.89 11.7367V19.8834Z" fill="white"/>
</g>
<defs>
<clipPath id="clip0_4001_231">
<rect width="80" height="80" fill="white"/>
</clipPath>
</defs>
</svg>
