<svg width="80" height="80" viewBox="0 0 80 80" fill="none" xmlns="http://www.w3.org/2000/svg">
<path d="M13.3333 20.0002V53.3335H30V40.0002C30 38.2321 30.7024 36.5364 31.9526 35.2861C33.2029 34.0359 34.8986 33.3335 36.6667 33.3335H53.3333C55.1014 33.3335 56.7971 34.0359 58.0474 35.2861C59.2976 36.5364 60 38.2321 60 40.0002V53.3335H66.6667V20.0002H13.3333ZM0 66.6668V60.0002H13.3333C11.5652 60.0002 9.86953 59.2978 8.61929 58.0475C7.36905 56.7973 6.66667 55.1016 6.66667 53.3335V20.0002C6.66667 18.2321 7.36905 16.5364 8.61929 15.2861C9.86953 14.0359 11.5652 13.3335 13.3333 13.3335H66.6667C68.4348 13.3335 70.1305 14.0359 71.3807 15.2861C72.631 16.5364 73.3333 18.2321 73.3333 20.0002V53.3335C73.3333 55.1016 72.631 56.7973 71.3807 58.0475C70.1305 59.2978 68.4348 60.0002 66.6667 60.0002H80V66.6668H60C60 68.4349 59.2976 70.1306 58.0474 71.3809C56.7971 72.6311 55.1014 73.3335 53.3333 73.3335H36.6667C34.8986 73.3335 33.2029 72.6311 31.9526 71.3809C30.7024 70.1306 30 68.4349 30 66.6668H0ZM38.3333 66.6668C37.8913 66.6668 37.4674 66.8424 37.1548 67.155C36.8423 67.4675 36.6667 67.8915 36.6667 68.3335C36.6667 68.7755 36.8423 69.1994 37.1548 69.512C37.4674 69.8246 37.8913 70.0002 38.3333 70.0002C38.7754 70.0002 39.1993 69.8246 39.5118 69.512C39.8244 69.1994 40 68.7755 40 68.3335C40 67.8915 39.8244 67.4675 39.5118 67.155C39.1993 66.8424 38.7754 66.6668 38.3333 66.6668ZM51.6667 66.6668C51.2246 66.6668 50.8007 66.8424 50.4882 67.155C50.1756 67.4675 50 67.8915 50 68.3335C50 68.7755 50.1756 69.1994 50.4882 69.512C50.8007 69.8246 51.2246 70.0002 51.6667 70.0002C52.1087 70.0002 52.5326 69.8246 52.8452 69.512C53.1577 69.1994 53.3333 68.7755 53.3333 68.3335C53.3333 67.8915 53.1577 67.4675 52.8452 67.155C52.5326 66.8424 52.1087 66.6668 51.6667 66.6668ZM43.3333 66.6668V70.0002H46.6667V66.6668H43.3333ZM36.6667 40.0002V63.3335H53.3333V40.0002H36.6667Z" fill="white"/>
</svg>
