<svg width="80" height="80" viewBox="0 0 80 80" fill="none" xmlns="http://www.w3.org/2000/svg">
<g clip-path="url(#clip0_4001_331)">
<path d="M58.1699 22.2667C59.8699 20.58 59.8699 17.8334 58.1699 16.1434L51.9266 9.90003L51.9366 9.90669L43.4232 1.40669C42.5057 0.517112 41.2757 0.0232441 39.9977 0.0313482C38.7198 0.0394522 37.4961 0.54888 36.5899 1.45003L1.42324 36.6C0.973439 37.0471 0.616477 37.5786 0.372892 38.1641C0.129307 38.7496 0.00390625 39.3775 0.00390625 40.0117C0.00390625 40.6459 0.129307 41.2737 0.372892 41.8593C0.616477 42.4448 0.973439 42.9763 1.42324 43.4234L36.5866 78.5567C37.4929 79.4625 38.7219 79.9713 40.0032 79.9713C41.2846 79.9713 42.5136 79.4625 43.4199 78.5567L58.1632 63.8234C58.5666 63.4217 58.8866 62.9443 59.105 62.4186C59.3234 61.8929 59.4358 61.3293 59.4358 60.76C59.4358 60.1908 59.3234 59.6271 59.105 59.1015C58.8866 58.5758 58.5666 58.0984 58.1632 57.6967C57.3482 56.8866 56.2457 56.4318 55.0966 56.4318C53.9474 56.4318 52.8449 56.8866 52.0299 57.6967L40.8632 68.8767C40.7558 68.9867 40.6275 69.074 40.4858 69.1337C40.3441 69.1933 40.192 69.2241 40.0382 69.2241C39.8845 69.2241 39.7323 69.1933 39.5907 69.1337C39.449 69.074 39.3207 68.9867 39.2132 68.8767L11.1232 40.8134C11.0133 40.7059 10.9259 40.5776 10.8662 40.4359C10.8066 40.2943 10.7759 40.1421 10.7759 39.9884C10.7759 39.8346 10.8066 39.6825 10.8662 39.5408C10.9259 39.3991 11.0133 39.2708 11.1232 39.1634L39.2032 11.0967C39.2366 11.0634 39.2832 11.0367 39.3199 11C39.5413 10.8211 39.822 10.732 40.1061 10.7505C40.3902 10.769 40.6569 10.8938 40.8532 11.1L52.0332 22.2667C52.4358 22.6703 52.914 22.9906 53.4405 23.2091C53.967 23.4276 54.5315 23.5401 55.1016 23.5401C55.6716 23.5401 56.2361 23.4276 56.7626 23.2091C57.2891 22.9906 57.7674 22.6703 58.1699 22.2667ZM30.6866 40.1867C30.6866 42.7032 31.6869 45.1166 33.4676 46.896C35.2482 48.6754 37.6633 49.675 40.1816 49.675C42.6998 49.675 45.1149 48.6754 46.8955 46.896C48.6762 45.1166 49.6766 42.7032 49.6766 40.1867C49.6766 37.6702 48.6762 35.2568 46.8955 33.4774C45.1149 31.698 42.6998 30.6984 40.1816 30.6984C37.6633 30.6984 35.2482 31.698 33.4676 33.4774C31.6869 35.2568 30.6866 37.6702 30.6866 40.1867ZM78.5799 36.74L67.5999 25.81C66.7843 24.9986 65.68 24.5439 64.5295 24.5458C63.379 24.5476 62.2762 25.0059 61.4632 25.82C61.0599 26.2217 60.7399 26.6991 60.5215 27.2248C60.3031 27.7505 60.1907 28.3141 60.1907 28.8834C60.1907 29.4526 60.3031 30.0162 60.5215 30.5419C60.7399 31.0676 61.0599 31.545 61.4632 31.9467L68.8766 39.3534C69.3432 39.8167 69.3432 40.54 68.8766 41.0034L61.5699 48.3034C61.1671 48.705 60.8474 49.1822 60.6294 49.7075C60.4113 50.2329 60.299 50.7962 60.299 51.365C60.299 51.9339 60.4113 52.4971 60.6294 53.0225C60.8474 53.5479 61.1671 54.0251 61.5699 54.4267C62.3849 55.2368 63.4874 55.6916 64.6366 55.6916C65.7857 55.6916 66.8882 55.2368 67.7032 54.4267L78.5832 43.56C79.0318 43.1121 79.3875 42.5801 79.63 41.9944C79.8726 41.4087 79.9971 40.7809 79.9965 40.147C79.9958 39.5131 79.8701 38.8855 79.6264 38.3003C79.3828 37.7151 79.026 37.1837 78.5766 36.7367L78.5799 36.74Z" fill="white"/>
</g>
<defs>
<clipPath id="clip0_4001_331">
<rect width="80" height="80" fill="white"/>
</clipPath>
</defs>
</svg>
