<svg width="80" height="80" viewBox="0 0 80 80" fill="none" xmlns="http://www.w3.org/2000/svg">
<path d="M39.9998 6.6665C35.6224 6.6665 31.2879 7.5287 27.2437 9.20385C23.1995 10.879 19.5249 13.3343 16.4296 16.4296C10.1784 22.6808 6.6665 31.1593 6.6665 39.9998C6.6665 54.7332 16.2332 67.2332 29.4665 71.6665C31.1332 71.9332 31.6665 70.8998 31.6665 69.9998V64.3665C22.4332 66.3665 20.4665 59.8998 20.4665 59.8998C18.9332 56.0332 16.7665 54.9998 16.7665 54.9998C13.7332 52.9332 16.9998 52.9998 16.9998 52.9998C20.3332 53.2332 22.0998 56.4332 22.0998 56.4332C24.9998 61.4998 29.8998 59.9998 31.7998 59.1998C32.0998 57.0332 32.9665 55.5665 33.8998 54.7332C26.4998 53.8998 18.7332 51.0332 18.7332 38.3332C18.7332 34.6332 19.9998 31.6665 22.1665 29.2998C21.8332 28.4665 20.6665 24.9998 22.4998 20.4998C22.4998 20.4998 25.2998 19.5998 31.6665 23.8998C34.2998 23.1665 37.1665 22.7998 39.9998 22.7998C42.8332 22.7998 45.6998 23.1665 48.3332 23.8998C54.6998 19.5998 57.4998 20.4998 57.4998 20.4998C59.3332 24.9998 58.1665 28.4665 57.8332 29.2998C59.9998 31.6665 61.2665 34.6332 61.2665 38.3332C61.2665 51.0665 53.4665 53.8665 46.0332 54.6998C47.2332 55.7332 48.3332 57.7665 48.3332 60.8665V69.9998C48.3332 70.8998 48.8665 71.9665 50.5665 71.6665C63.7998 67.1998 73.3332 54.7332 73.3332 39.9998C73.3332 35.6224 72.471 31.2879 70.7958 27.2437C69.1207 23.1995 66.6653 19.5249 63.5701 16.4296C60.4748 13.3343 56.8001 10.879 52.756 9.20385C48.7118 7.5287 44.3772 6.6665 39.9998 6.6665Z" fill="white"/>
</svg>
