<svg width="80" height="80" viewBox="0 0 80 80" fill="none" xmlns="http://www.w3.org/2000/svg">
<path d="M66.6668 62.3L42.3335 75.8C40.6668 76.6666 39.0002 76.6666 37.3335 75.8L13.3335 62.3L56.8335 18.4666L58.0002 18.1333C59.0002 18.1333 59.5668 18.5666 59.6668 19.4666L66.6668 62.3ZM31.1668 19.1333L16.0002 44.3L22.3335 4.46663C22.4335 3.56663 23.0002 3.1333 24.0002 3.1333C24.6668 3.1333 25.1002 3.3333 25.3335 3.96663L32.5002 17.1333L31.1668 19.1333ZM46.1668 23.3333L14.3335 55.3L38.5002 14.3C38.8335 13.6333 39.3335 13.3333 40.0002 13.3333C40.6668 13.3333 41.1002 13.6333 41.3335 14.3L46.1668 23.3333Z" fill="white"/>
</svg>
