<svg width="25" height="25" viewBox="0 0 25 25" fill="none" xmlns="http://www.w3.org/2000/svg">
<path d="M14.0134 16.2451C13.9767 16.2088 13.9271 16.1884 13.8755 16.1884C13.8238 16.1884 13.7743 16.2088 13.7376 16.2451L10.9006 19.082C9.58716 20.3955 7.37036 20.5347 5.92017 19.082C4.46753 17.6294 4.60669 15.415 5.92017 14.1016L8.75708 11.2647C8.83277 11.189 8.83277 11.0645 8.75708 10.9888L7.7854 10.0171C7.74869 9.98074 7.69912 9.96035 7.64746 9.96035C7.5958 9.96035 7.54623 9.98074 7.50952 10.0171L4.67261 12.854C2.60718 14.9194 2.60718 18.2617 4.67261 20.3247C6.73804 22.3877 10.0803 22.3901 12.1433 20.3247L14.9802 17.4878C15.0559 17.4121 15.0559 17.2876 14.9802 17.2119L14.0134 16.2451ZM20.3269 4.67285C18.2615 2.60742 14.9192 2.60742 12.8562 4.67285L10.0168 7.50977C9.9805 7.54647 9.96011 7.59605 9.96011 7.64771C9.96011 7.69937 9.9805 7.74894 10.0168 7.78565L10.9861 8.75488C11.0618 8.83057 11.1863 8.83057 11.262 8.75488L14.0989 5.91797C15.4124 4.60449 17.6292 4.46533 19.0793 5.91797C20.532 7.37061 20.3928 9.58496 19.0793 10.8984L16.2424 13.7354C16.2061 13.7721 16.1857 13.8216 16.1857 13.8733C16.1857 13.925 16.2061 13.9745 16.2424 14.0112L17.2141 14.9829C17.2898 15.0586 17.4143 15.0586 17.49 14.9829L20.3269 12.146C22.3899 10.0806 22.3899 6.73828 20.3269 4.67285ZM14.8948 9.08936C14.8581 9.05301 14.8085 9.03262 14.7568 9.03262C14.7052 9.03262 14.6556 9.05301 14.6189 9.08936L9.08911 14.6167C9.05276 14.6534 9.03237 14.703 9.03237 14.7546C9.03237 14.8063 9.05276 14.8559 9.08911 14.8926L10.0559 15.8594C10.1316 15.9351 10.2561 15.9351 10.3318 15.8594L15.8591 10.332C15.9348 10.2563 15.9348 10.1318 15.8591 10.0562L14.8948 9.08936Z" fill="white"/>
</svg>
