<svg width="36" height="36" viewBox="0 0 36 36" fill="none" xmlns="http://www.w3.org/2000/svg">
<circle cx="18" cy="18" r="18" fill="#DDDDDD"/>
<path d="M24 12C26.07 14.04 26.85 16.89 26.36 19.55C26.77 20.27 27 21.11 27 22C27 23.3261 26.4732 24.5979 25.5355 25.5355C24.5979 26.4732 23.3261 27 22 27C21.11 27 20.27 26.77 19.55 26.36C16.89 26.85 14.04 26.07 12 24C9.93 21.96 9.15 19.11 9.64 16.45C9.23 15.73 9 14.89 9 14C9 12.6739 9.52678 11.4021 10.4645 10.4645C11.4021 9.52678 12.6739 9 14 9C14.89 9 15.73 9.23 16.45 9.64C19.11 9.15 21.96 9.93 24 12ZM18.04 23.16C20.91 23.16 22.34 21.78 22.34 19.92C22.34 18.73 21.78 17.46 19.61 16.97L17.62 16.53C16.86 16.36 16 16.13 16 15.42C16 14.7 16.6 14.2 17.7 14.2C19.93 14.2 19.72 15.73 20.83 15.73C21.41 15.73 21.91 15.39 21.91 14.8C21.91 13.43 19.72 12.4 17.86 12.4C15.85 12.4 13.7 13.26 13.7 15.54C13.7 16.64 14.09 17.81 16.25 18.35L18.94 19.03C19.75 19.23 19.95 19.68 19.95 20.1C19.95 20.78 19.27 21.45 18.04 21.45C15.63 21.45 15.96 19.6 14.67 19.6C14.09 19.6 13.67 20 13.67 20.57C13.67 21.68 15 23.16 18.04 23.16Z" fill="black"/>
</svg>
