<svg width="80" height="80" viewBox="0 0 80 80" fill="none" xmlns="http://www.w3.org/2000/svg">
<path d="M45.8 14.1002C43 10.7669 40.5667 7.43353 40.1 6.7002H40C39.5333 7.4002 37.1 10.7669 34.3 14.1002C10.3 44.7335 38.1 65.4002 38.1 65.4002L38.3333 65.5669C38.5333 68.7335 39.0667 73.3335 39.0667 73.3335H41.1333C41.1333 73.3335 41.6333 68.7669 41.8333 65.5669L42.0667 65.3669C42.0667 65.3669 69.8 44.7335 45.8 14.1002ZM40 64.9335C39.4158 64.4536 38.8799 63.9177 38.4 63.3335L40 30.0002L41.5 63.3335C41.0503 63.9119 40.5482 64.4475 40 64.9335Z" fill="white"/>
</svg>
