<svg width="80" height="80" viewBox="0 0 80 80" fill="none" xmlns="http://www.w3.org/2000/svg">
<g clip-path="url(#clip0_4001_196)">
<path d="M78.4902 36.4348L43.5602 1.50979C43.0819 1.0313 42.5141 0.651723 41.8891 0.392752C41.2641 0.133781 40.5942 0.000488281 39.9177 0.000488281C39.2411 0.000488281 38.5712 0.133781 37.9463 0.392752C37.3213 0.651723 36.7534 1.0313 36.2752 1.50979L29.0252 8.75979L38.2252 17.9598C39.3102 17.5893 40.4775 17.5314 41.5939 17.7925C42.7103 18.0537 43.7307 18.6234 44.5388 19.4368C45.3469 20.2501 45.9101 21.2742 46.1641 22.3922C46.418 23.5103 46.3526 24.6772 45.9752 25.7598L54.8402 34.6298C56.1517 34.168 57.5814 34.1666 58.8939 34.6258C60.2064 35.085 61.3233 35.9775 62.0609 37.1563C62.7984 38.3351 63.1125 39.7298 62.9515 41.111C62.7905 42.4921 62.164 43.7773 61.1752 44.7548C60.1741 45.762 58.8544 46.3904 57.4414 46.5327C56.0285 46.6749 54.61 46.3222 53.4282 45.5348C52.2465 44.7473 51.3747 43.574 50.962 42.2152C50.5492 40.8564 50.6211 39.3965 51.1652 38.0848L42.9002 29.8148V51.5798C44.1564 52.2017 45.1617 53.2353 45.7482 54.5084C46.3348 55.7816 46.4673 57.2173 46.1237 58.5763C45.7801 59.9353 44.981 61.1355 43.8598 61.9768C42.7385 62.8181 41.3628 63.2497 39.9619 63.1997C38.5611 63.1496 37.2197 62.621 36.1613 61.7018C35.1029 60.7827 34.3915 59.5286 34.1457 58.1485C33.8999 56.7685 34.1345 55.3459 34.8104 54.1178C35.4863 52.8898 36.5627 51.9304 37.8602 51.3998V29.4348C37.1116 29.1281 36.4312 28.6762 35.8581 28.1053C35.285 27.5343 34.8305 26.8556 34.521 26.1082C34.2114 25.3608 34.0529 24.5595 34.0544 23.7506C34.056 22.9416 34.2177 22.141 34.5302 21.3948L25.4652 12.3248L1.51516 36.2748C1.03667 36.753 0.657094 37.3209 0.398123 37.9459C0.139152 38.5709 0.00585938 39.2408 0.00585938 39.9173C0.00585938 40.5938 0.139152 41.2637 0.398123 41.8887C0.657094 42.5137 1.03667 43.0815 1.51516 43.5598L36.4452 78.4898C36.9234 78.9683 37.4913 79.3479 38.1163 79.6068C38.7412 79.8658 39.4111 79.9991 40.0877 79.9991C40.7642 79.9991 41.4341 79.8658 42.0591 79.6068C42.6841 79.3479 43.2519 78.9683 43.7302 78.4898L78.4952 43.7248C79.4603 42.7583 80.0024 41.4482 80.0024 40.0823C80.0024 38.7164 79.4603 37.4063 78.4952 36.4398" fill="white"/>
</g>
<defs>
<clipPath id="clip0_4001_196">
<rect width="80" height="80" fill="white"/>
</clipPath>
</defs>
</svg>
