<svg width="80" height="80" viewBox="0 0 80 80" fill="none" xmlns="http://www.w3.org/2000/svg">
<g clip-path="url(#clip0_4001_377)">
<path d="M78.8067 18.6733L75.7033 24.8667C75.7033 24.8667 74.37 22.4067 73.0533 21.28C71.7967 20.2067 70.1733 19.2133 68.12 19.4267C66.13 19.6333 63.8867 21.3833 62.38 24.2933C60.67 27.6067 60.0867 30.9633 60.0733 34.6667C60.0567 39.8533 61.9733 43.3933 61.9733 43.3933C61.9733 43.3933 61.5333 41.7467 61.6067 38.96C61.6533 37.2267 61.6633 35.33 62.9733 31.4233C64.0733 28.1567 66.5867 25.5067 68.8067 25.05C70.53 24.6933 71.63 24.95 73.3267 26.1467C75.3367 27.5633 76.5467 30.1233 76.5467 30.1233L79.7 24.09L78.8067 18.6733ZM0 18.9133L12.5667 61.3233H13.0867L20.94 35.0367L28.7967 61.3233H29.32L40.08 25.0067L40.5867 24.1467H49.4367L42.1033 36.82V39.3333H44.2C46.8867 39.3333 48.86 40.1533 50.1167 41.7933C51.1967 43.1933 51.74 45.1633 51.74 47.7133C51.74 50.0167 51.2333 51.99 50.2233 53.63C49.21 55.27 47.97 56.09 46.5033 56.09C45.1067 56.09 43.8933 55.63 42.8633 54.7033C41.8367 53.78 41.0067 52.5133 40.3767 50.9067L36.0833 52.6867C36.9533 55.34 38.3 57.4433 40.1167 58.9967C41.8857 60.5337 44.1601 61.3635 46.5033 61.3267C49.75 61.3267 52.3933 60.0167 54.4367 57.4C56.48 54.7833 57.5 51.5533 57.5 47.7133C57.5 44.6067 56.8 41.9033 55.4067 39.5967C54.0067 37.2967 51.95 35.7067 49.2267 34.83L56.98 21.4767V18.91H36.39L28.8 44.73L21.2067 18.9133H15.7067L18.22 27.3433L13.0867 44.7267L5.5 18.9133H0ZM58.1333 48.5133C58.1333 48.5133 58.91 51.03 59.3967 52.1C59.6767 52.7167 60.5367 54.6 61.7567 56.2333C62.8933 57.7667 65.1033 60.3933 68.46 60.9867C71.82 61.58 74.1267 60.0733 74.6967 59.7067C75.6123 59.062 76.462 58.3284 77.2333 57.5167C77.9604 56.7124 78.6183 55.8482 79.2 54.9333C79.4823 54.4622 79.7492 53.982 80 53.4933L79.1967 49.31C79.1967 49.31 77.8033 51.8033 76.9367 52.7633C76.0667 53.7233 74.5133 55.41 72.5967 56.2567C70.6767 57.1 69.6733 57.2633 67.7767 57.08C65.88 56.9 64.12 55.8033 63.5033 55.3467C62.8867 54.8867 61.31 53.54 60.42 52.28C59.5267 51.0267 58.1333 48.5133 58.1333 48.5133Z" fill="white"/>
</g>
<defs>
<clipPath id="clip0_4001_377">
<rect width="80" height="80" fill="white"/>
</clipPath>
</defs>
</svg>
