<svg width="80" height="80" viewBox="0 0 80 80" fill="none" xmlns="http://www.w3.org/2000/svg">
<path d="M39.2998 38.3332H32.3998V27.2998H40.6332C44.8332 27.2998 47.1665 29.1665 47.1665 32.5998C47.1665 36.3332 44.3998 38.3332 39.2998 38.3332ZM40.5332 42.0998H32.3998V54.2332H40.9332C46.1332 54.2332 48.8665 52.1332 48.8665 48.1332C48.8665 44.1332 46.0332 42.0998 40.5332 42.0998ZM73.3332 17.6998V62.2998C73.3332 68.3332 68.3332 73.3332 62.2998 73.3332H17.6998C11.6665 73.3332 6.6665 68.3332 6.6665 62.2998V17.6998C6.6665 11.6665 11.6665 6.6665 17.6998 6.6665H62.2998C68.3332 6.6665 73.3332 11.6665 73.3332 17.6998ZM53.3332 48.3332C53.3332 43.7332 50.2665 40.4332 45.5665 39.8332V39.6332C48.8998 39.0332 51.5332 35.6998 51.5332 32.0998C51.5332 26.9332 47.5332 23.4998 41.6665 23.4998H28.0998V58.0332H41.5665C48.9332 58.0332 53.3332 54.3998 53.3332 48.3332Z" fill="white"/>
</svg>
