<svg width="80" height="80" viewBox="0 0 80 80" fill="none" xmlns="http://www.w3.org/2000/svg">
<path d="M39.9998 33.7001C43.4332 33.7001 46.2332 36.5001 46.2332 40.0001C46.2332 43.3335 43.4332 46.1668 39.9998 46.1668C36.5665 46.1668 33.7665 43.3335 33.7665 40.0001C33.7665 36.5001 36.5665 33.7001 39.9998 33.7001ZM24.5665 66.6668C26.6665 67.9335 31.2665 66.0001 36.5665 61.0001C34.8332 59.0335 33.1332 56.9001 31.5332 54.6668C28.847 54.4097 26.1765 54.0092 23.5332 53.4668C21.8332 60.6001 22.4665 65.5001 24.5665 66.6668ZM26.9332 47.5335L25.9665 45.8335C25.5998 46.8001 25.2332 47.7668 24.9998 48.7001C25.8998 48.9001 26.8998 49.0668 27.9332 49.2335L26.9332 47.5335ZM48.7332 45.0001L51.4332 40.0001L48.7332 35.0001C47.7332 33.2335 46.6665 31.6668 45.6998 30.1001C43.8998 30.0001 41.9998 30.0001 39.9998 30.0001C37.9998 30.0001 36.0998 30.0001 34.2998 30.1001C33.3332 31.6668 32.2665 33.2335 31.2665 35.0001L28.5665 40.0001L31.2665 45.0001C32.2665 46.7668 33.3332 48.3335 34.2998 49.9001C36.0998 50.0001 37.9998 50.0001 39.9998 50.0001C41.9998 50.0001 43.8998 50.0001 45.6998 49.9001C46.6665 48.3335 47.7332 46.7668 48.7332 45.0001ZM39.9998 22.6001C39.3665 23.3335 38.6998 24.1001 38.0332 25.0001H41.9665C41.2998 24.1001 40.6332 23.3335 39.9998 22.6001ZM39.9998 57.4001C40.6332 56.6668 41.2998 55.9001 41.9665 55.0001H38.0332C38.6998 55.9001 39.3665 56.6668 39.9998 57.4001ZM55.3998 13.3335C53.3332 12.0668 48.7332 14.0001 43.4332 19.0001C45.1665 20.9668 46.8665 23.1001 48.4665 25.3335C51.1998 25.6001 53.8998 26.0001 56.4665 26.5335C58.1665 19.4001 57.5332 14.5001 55.3998 13.3335ZM53.0665 32.4668L54.0332 34.1668C54.3998 33.2001 54.7665 32.2335 54.9998 31.3001C54.0998 31.1001 53.0998 30.9335 52.0665 30.7668L53.0665 32.4668ZM57.8998 8.9668C62.7998 11.7668 63.3332 19.1335 61.2665 27.7335C69.7332 30.2335 75.8332 34.3668 75.8332 40.0001C75.8332 45.6335 69.7332 49.7668 61.2665 52.2668C63.3332 60.8668 62.7998 68.2335 57.8998 71.0335C53.0332 73.8335 46.3998 70.6335 39.9998 64.5335C33.5998 70.6335 26.9665 73.8335 22.0665 71.0335C17.1998 68.2335 16.6665 60.8668 18.7332 52.2668C10.2665 49.7668 4.1665 45.6335 4.1665 40.0001C4.1665 34.3668 10.2665 30.2335 18.7332 27.7335C16.6665 19.1335 17.1998 11.7668 22.0665 8.9668C26.9665 6.1668 33.5998 9.3668 39.9998 15.4668C46.3998 9.3668 53.0332 6.1668 57.8998 8.9668ZM56.9332 40.0001C58.0665 42.5001 59.0665 45.0001 59.8998 47.5335C66.8998 45.4335 70.8332 42.4335 70.8332 40.0001C70.8332 37.5668 66.8998 34.5668 59.8998 32.4668C59.0665 35.0001 58.0665 37.5001 56.9332 40.0001ZM23.0665 40.0001C21.9332 37.5001 20.9332 35.0001 20.0998 32.4668C13.0998 34.5668 9.1665 37.5668 9.1665 40.0001C9.1665 42.4335 13.0998 45.4335 20.0998 47.5335C20.9332 45.0001 21.9332 42.5001 23.0665 40.0001ZM53.0665 47.5335L52.0665 49.2335C53.0998 49.0668 54.0998 48.9001 54.9998 48.7001C54.7665 47.7668 54.3998 46.8001 54.0332 45.8335L53.0665 47.5335ZM43.4332 61.0001C48.7332 66.0001 53.3332 67.9335 55.3998 66.6668C57.5332 65.5001 58.1665 60.6001 56.4665 53.4668C53.8998 54.0001 51.1998 54.4001 48.4665 54.6668C46.8665 56.9001 45.1665 59.0335 43.4332 61.0001ZM26.9332 32.4668L27.9332 30.7668C26.8998 30.9335 25.8998 31.1001 24.9998 31.3001C25.2332 32.2335 25.5998 33.2001 25.9665 34.1668L26.9332 32.4668ZM36.5665 19.0001C31.2665 14.0001 26.6665 12.0668 24.5665 13.3335C22.4665 14.5001 21.8332 19.4001 23.5332 26.5335C26.1765 25.9911 28.847 25.5905 31.5332 25.3335C33.1332 23.1001 34.8332 20.9668 36.5665 19.0001Z" fill="white"/>
</svg>
