<svg width="80" height="80" viewBox="0 0 80 80" fill="none" xmlns="http://www.w3.org/2000/svg">
<path d="M23.3333 23.3335H16.6667C14.8986 23.3335 13.2029 24.0359 11.9526 25.2861C10.7024 26.5364 10 28.2321 10 30.0002V56.6668H16.6667V43.3335H23.3333V56.6668H30V30.0002C30 28.2321 29.2976 26.5364 28.0474 25.2861C26.7971 24.0359 25.1014 23.3335 23.3333 23.3335ZM23.3333 36.6668H16.6667V30.0002H23.3333M46.6667 23.3335H33.3333V56.6668H40V43.3335H46.6667C48.4348 43.3335 50.1305 42.6311 51.3807 41.3809C52.631 40.1306 53.3333 38.4349 53.3333 36.6668V30.0002C53.3333 28.2321 52.631 26.5364 51.3807 25.2861C50.1305 24.0359 48.4348 23.3335 46.6667 23.3335ZM46.6667 36.6668H40V30.0002H46.6667M66.6667 30.0002V50.0002H70V56.6668H56.6667V50.0002H60V30.0002H56.6667V23.3335H70V30.0002H66.6667Z" fill="white"/>
</svg>
