<svg width="30" height="32" viewBox="0 0 30 32" fill="none" xmlns="http://www.w3.org/2000/svg">
<path d="M28.3509 2.15116C28.3137 1.54464 28.037 0.977745 27.5819 0.575143C27.1267 0.172541 26.5303 -0.032801 25.9237 0.00427281L7.62425 1.12558C7.32025 1.13891 7.02194 1.21265 6.74674 1.3425C6.47154 1.47235 6.22495 1.65571 6.02137 1.88188C5.81779 2.10805 5.66129 2.37249 5.56101 2.65979C5.46072 2.94709 5.41866 3.25148 5.43727 3.55521C5.45588 3.85893 5.53479 4.15591 5.6694 4.42882C5.80402 4.70172 5.99163 4.94508 6.2213 5.1447C6.45097 5.34432 6.7181 5.4962 7.0071 5.59148C7.29609 5.68676 7.60117 5.72353 7.90453 5.69964L20.6821 4.91669L0.575144 27.6487C0.172463 28.1039 -0.0328787 28.7005 0.00429393 29.3071C0.0414666 29.9138 0.318108 30.4808 0.77336 30.8835C1.22861 31.2862 1.82518 31.4915 2.43183 31.4543C3.03848 31.4172 3.60552 31.1405 4.0082 30.6853L24.1152 7.95331L24.8982 20.7309C24.9453 21.33 25.2259 21.8865 25.6794 22.2807C26.1329 22.6749 26.7231 22.8752 27.3229 22.8384C27.9227 22.8017 28.484 22.5308 28.886 22.0842C29.288 21.6376 29.4985 21.051 29.4722 20.4506L28.3509 2.15116Z" fill="black"/>
</svg>
